<?xml version="1.0" standalone="no"?>
<!DOCTYPE svg PUBLIC "-//W3C//DTD SVG 20010904//EN"
 "http://www.w3.org/TR/2001/REC-SVG-20010904/DTD/svg10.dtd">
<svg version="1.0" xmlns="http://www.w3.org/2000/svg"
 width="700.000000pt" height="700.000000pt" viewBox="0 0 700.000000 700.000000"
 preserveAspectRatio="xMidYMid meet">
<metadata>
Created by potrace 1.11, written by Peter Selinger 2001-2013
</metadata>
<g transform="translate(0.000000,700.000000) scale(0.100000,-0.100000)"
fill="#000000" stroke="none">
<path d="M2915 6980 c-41 -27 -52 -53 -54 -134 -1 -39 -4 -73 -7 -75 -2 -3
-500 -5 -1107 -5 l-1102 -1 -2 -3383 -1 -3382 2858 0 2859 0 0 3383 0 3383
-1092 0 c-601 -1 -1100 0 -1109 3 -15 3 -18 14 -18 67 0 84 -18 126 -63 147
-32 16 -90 17 -584 17 -522 -1 -550 -2 -578 -20z m993 -389 l-3 -174 -385 0
c-212 1 -395 2 -407 2 -23 1 -23 2 -23 174 l0 173 410 0 410 0 -2 -175z
m-1868 -116 l0 -60 -507 2 c-280 1 -516 -1 -525 -4 -17 -4 -18 -157 -18 -3034
l0 -3029 2510 0 2510 0 0 3033 0 3034 -522 0 -523 0 -5 39 c-3 21 -4 48 -2 59
3 20 11 20 579 19 396 0 577 -4 581 -11 4 -6 7 -1423 7 -3150 l0 -3138 -2625
0 -2625 0 0 3147 c0 2721 2 3148 14 3150 8 2 270 3 583 3 l568 0 0 -60z m808
56 c9 -1 12 -43 12 -174 l0 -174 640 1 640 0 1 50 c0 28 1 106 0 174 0 67 3
122 7 123 38 4 547 3 560 -2 15 -5 17 -28 17 -229 0 -200 -1 -223 -17 -229
-24 -9 -2416 -6 -2425 3 -10 9 -11 449 -2 456 5 4 507 5 567 1z m-813 -353 c3
-2 5 -81 6 -175 l0 -170 1459 0 1458 0 1 170 c0 93 2 172 5 175 9 8 778 9 796
1 13 -6 15 -326 15 -2801 l0 -2793 -2273 0 c-1249 0 -2273 2 -2273 5 -6 23 -4
5577 2 5585 8 10 794 14 804 3z"/>
<path d="M1775 5243 c-64 -16 -99 -96 -69 -159 34 -71 -10 -68 864 -68 745 0
786 1 813 19 77 50 72 162 -9 200 -28 13 -137 15 -806 14 -425 -1 -782 -4
-793 -6z"/>
<path d="M1760 4537 c-41 -21 -72 -76 -65 -116 8 -45 22 -65 59 -87 30 -17
103 -18 1736 -17 938 0 1714 2 1725 5 28 5 59 28 77 58 31 49 4 128 -53 157
-35 18 -3443 18 -3479 0z"/>
<path d="M1761 3837 c-83 -42 -88 -155 -8 -202 31 -18 63 -19 872 -19 935 0
885 -3 919 68 27 56 2 124 -55 153 -18 10 -217 13 -864 13 -647 0 -846 -3
-864 -13z"/>
<path d="M3874 3843 c-36 -7 -74 -56 -78 -99 -10 -102 109 -164 184 -96 60 53
55 136 -9 179 -33 22 -51 25 -97 16z"/>
<path d="M4324 3834 c-80 -39 -84 -149 -7 -199 26 -18 57 -19 463 -19 405 0
437 1 466 18 62 37 78 109 37 165 -38 51 -38 51 -498 51 -363 0 -435 -3 -461
-16z"/>
<path d="M1765 3140 c-91 -37 -92 -173 0 -212 44 -19 3427 -18 3473 1 82 34
91 141 16 200 l-26 21 -1722 -1 c-946 0 -1730 -4 -1741 -9z"/>
<path d="M1799 2329 c-50 -8 -74 -24 -92 -60 -22 -46 -13 -98 24 -134 l29 -30
1740 0 1740 0 31 31 c52 52 43 133 -18 178 -26 19 -62 20 -1723 20 -934 1
-1712 -2 -1731 -5z"/>
<path d="M1804 1632 c-71 -11 -107 -52 -107 -120 0 -35 5 -49 32 -75 l31 -32
791 -3 c719 -2 793 -1 825 14 81 38 85 148 7 199 -27 18 -68 19 -794 19 -421
1 -774 0 -785 -2z"/>
</g>
</svg>
